<?xml version="1.0" standalone="no"?>
<!DOCTYPE svg PUBLIC "-//W3C//DTD SVG 20010904//EN"
 "http://www.w3.org/TR/2001/REC-SVG-20010904/DTD/svg10.dtd">
<svg version="1.0" xmlns="http://www.w3.org/2000/svg"
 width="512.000000pt" height="512.000000pt" viewBox="0 0 512.000000 512.000000"
 preserveAspectRatio="xMidYMid meet">

<g transform="translate(0.000000,512.000000) scale(0.100000,-0.100000)"
fill="#000000" stroke="none">
<path d="M1945 4880 c-324 -88 -600 -161 -612 -165 -31 -7 -606 -828 -611
-871 -4 -29 67 -115 878 -1075 485 -574 893 -1054 907 -1066 l24 -23 -1122 0
c-851 0 -1132 -3 -1163 -12 -55 -16 -138 -99 -154 -154 -17 -59 -17 -1209 0
-1268 16 -55 99 -138 154 -154 32 -9 559 -12 2316 -12 2565 0 2332 -8 2411 80
24 26 49 66 55 88 17 56 17 1208 0 1264 -6 22 -31 62 -55 88 -77 86 13 80
-1260 80 l-1124 0 24 23 c14 12 422 492 907 1066 811 960 882 1046 878 1075
-3 21 -99 167 -296 448 l-292 417 -53 15 c-206 58 -1188 316 -1203 315 -11 0
-284 -72 -609 -159z m1077 -126 c246 -65 444 -122 440 -125 -4 -4 -208 -73
-454 -155 l-448 -149 -447 149 c-247 82 -451 151 -455 155 -7 6 890 250 907
246 6 -1 211 -56 457 -121z m-1044 -405 c296 -99 431 -148 428 -156 -6 -16
-457 -523 -465 -523 -3 0 -100 187 -214 416 -115 229 -202 414 -195 412 7 -3
208 -70 446 -149z m1415 -264 c-115 -228 -211 -415 -214 -415 -8 0 -459 507
-465 523 -3 8 134 58 433 159 241 80 441 147 445 147 5 1 -85 -186 -199 -414z
m-1837 -16 c113 -226 204 -413 202 -414 -2 -2 -187 49 -411 112 -271 77 -407
120 -405 128 3 12 400 585 405 585 2 0 95 -185 209 -411z m2437 99 c103 -147
187 -272 187 -276 0 -9 -811 -245 -817 -238 -2 2 89 189 202 416 205 410 206
412 224 388 9 -13 101 -143 204 -290z m-1200 -310 l225 -253 -229 -3 c-126 -1
-332 -1 -458 0 l-229 3 225 253 c123 138 228 252 233 252 5 0 110 -114 233
-252z m-1301 -299 l366 -104 213 -585 c117 -322 223 -614 236 -650 14 -36 20
-60 15 -55 -30 32 -1282 1516 -1282 1520 0 2 19 -2 43 -9 23 -7 207 -59 409
-117z m1952 -631 c-350 -414 -641 -757 -646 -763 -5 -5 1 19 15 55 13 36 119
328 236 650 l213 585 406 116 c224 63 408 114 410 113 2 -1 -283 -341 -634
-756z m-364 505 c0 -15 -515 -1423 -520 -1423 -5 0 -520 1408 -520 1423 0 4
234 7 520 7 286 0 520 -3 520 -7z m1775 -1938 l25 -24 0 -591 0 -591 -25 -24
-24 -25 -2271 0 -2271 0 -24 25 -25 24 0 591 0 591 25 24 24 25 2271 0 2271 0
24 -25z"/>
<path d="M505 1335 l-25 -24 0 -456 0 -455 80 0 80 0 0 240 0 240 98 0 c129 0
178 17 235 80 93 103 90 228 -8 325 -66 67 -98 75 -284 75 -148 0 -153 -1
-176 -25z m350 -160 c16 -15 25 -36 25 -55 0 -19 -9 -40 -25 -55 -22 -23 -32
-25 -120 -25 l-95 0 0 80 0 80 95 0 c88 0 98 -2 120 -25z"/>
<path d="M1145 1335 l-25 -24 0 -456 0 -455 80 0 80 0 0 200 0 200 29 0 c37 0
114 -74 154 -148 32 -59 57 -151 57 -209 l0 -43 80 0 80 0 0 46 c0 104 -46
243 -112 338 l-35 50 40 30 c87 68 125 189 93 301 -14 45 -29 69 -70 110 -71
72 -118 85 -293 85 -129 0 -135 -1 -158 -25z m337 -173 c28 -28 33 -39 33 -82
0 -43 -5 -54 -33 -82 -31 -31 -37 -33 -117 -37 l-85 -3 0 122 0 122 85 -3 c80
-4 86 -6 117 -37z"/>
<path d="M1785 1335 l-25 -24 0 -431 0 -431 25 -24 c24 -25 24 -25 240 -25
l215 0 0 80 0 80 -160 0 -160 0 0 120 0 120 160 0 160 0 0 80 0 80 -160 0
-160 0 0 120 0 120 160 0 160 0 0 80 0 80 -215 0 c-216 0 -216 0 -240 -25z"/>
<path d="M2345 1335 l-25 -24 0 -456 0 -455 80 0 80 0 1 188 1 187 44 -130
c46 -137 66 -165 114 -165 48 0 68 28 114 165 l44 130 1 -187 1 -188 80 0 80
0 0 455 0 456 -25 24 c-28 29 -70 32 -102 10 -16 -11 -44 -81 -105 -265 -45
-138 -85 -250 -88 -250 -3 0 -43 112 -88 250 -61 184 -89 254 -105 265 -32 22
-74 19 -102 -10z"/>
<path d="M3040 880 l0 -480 80 0 80 0 0 480 0 480 -80 0 -80 0 0 -480z"/>
<path d="M3282 998 c3 -354 4 -364 26 -408 35 -72 75 -114 144 -151 58 -31 70
-34 148 -34 78 0 90 3 148 34 70 38 100 69 140 145 l27 51 3 363 3 362 -80 0
-80 0 -3 -349 c-3 -335 -4 -351 -24 -377 -39 -53 -71 -69 -134 -69 -63 0 -95
16 -134 69 -20 26 -21 42 -24 377 l-3 349 -80 0 -80 0 3 -362z"/>
<path d="M4025 1335 l-25 -24 0 -456 0 -455 80 0 80 0 1 188 1 187 44 -130
c46 -137 66 -165 114 -165 48 0 68 28 114 165 l44 130 1 -187 1 -188 80 0 80
0 0 455 0 456 -25 24 c-28 29 -70 32 -102 10 -16 -11 -44 -81 -105 -265 -45
-138 -85 -250 -88 -250 -3 0 -43 112 -88 250 -61 184 -89 254 -105 265 -32 22
-74 19 -102 -10z"/>
</g>
</svg>
